<svg xmlns="http://www.w3.org/2000/svg" xmlns:xlink="http://www.w3.org/1999/xlink" width="200px" height="200px" style="position: absolute; top: -1000px; left: -1000px; pointer-event: none;">
  <defs>
    <filter id="gs-next-icon-filter" color-interpolation-filters="sRGB">
      <feFlood result="flood" flood-color="rgb(0,0,0)" flood-opacity="0.4"/>
      <feComposite result="composite1" operator="in" in2="SourceGraphic" in="flood"/>
      <feGaussianBlur result="blur" stdDeviation="3" in="composite1"/>
      <feOffset result="offset" dy="2" dx="1"/>
      <feComposite result="composite2" operator="over" in2="offset" in="SourceGraphic"/>
    </filter>
    <filter id="gs-prev-icon-filter" style="color-interpolation-filters:sRGB">
      <feFlood result="flood" flood-color="rgb(0,0,0)" flood-opacity="0.4"/>
      <feComposite result="composite1" operator="in" in2="SourceGraphic" in="flood"/>
      <feGaussianBlur result="blur" stdDeviation="3" in="composite1"/>
      <feOffset result="offset" dy="1" dx="-1"/>
      <feComposite result="composite2" operator="over" in2="offset" in="SourceGraphic"/>
    </filter>
  </defs>
  <symbol id="ret-inv-icon" viewBox="0 0 200 200">
    <g>
      <path d="m 177.78257,66.103406 c 12.09853,0 21.95335,4.968232 21.95335,11.079596 0,6.111367 -9.85482,11.079595 -21.95335,11.079595 -12.09854,0 -21.90936,-4.968228 -21.90936,-11.079595 0,-6.111364 9.81082,-11.079596 21.90936,-11.079596 z"/>
      <path d="m 155.87321,86.503934 c 4.17949,4.572531 12.49449,7.738128 22.12933,7.738128 9.63484,0 17.99383,-3.165597 22.17332,-7.826063 l -0.21999,7.826063 c -4.1355,4.660466 -12.53849,7.650198 -22.17332,7.650198 -9.59084,0 -17.59789,-3.121635 -21.77737,-7.694166 z"/>
      <path d="m 155.87321,100.1336 c 4.17949,4.61649 12.49449,7.73813 22.12933,7.73813 9.63484,0 17.99383,-3.1656 22.17332,-7.78211 l -0.21999,7.82607 c -4.1355,4.6165 -12.53849,7.6502 -22.17332,7.6502 -9.59084,0 -17.59789,-3.12163 -21.77737,-7.73813 z"/>
      <path d="m 155.87321,113.67532 c 4.17949,4.57254 12.49449,7.69417 22.12933,7.69417 9.63484,0 17.99383,-3.12163 22.17332,-7.7821 l -0.21999,7.82607 c -4.1355,4.66046 -12.53849,7.65019 -22.17332,7.65019 -9.59084,0 -17.59789,-3.12163 -21.77737,-7.69416 z"/>
      <path d="m 155.87321,126.99722 c 4.17949,4.6165 12.49449,7.73813 22.12933,7.73813 9.63484,0 17.99383,-3.1656 22.17332,-7.78209 l -0.21999,7.82605 c -4.1355,4.61651 -12.53849,7.60624 -22.17332,7.60624 -9.59084,0 -17.59789,-3.12164 -21.77737,-7.69417 z"/>
      <path d="m 155.9172,140.49498 c 4.1795,4.57254 12.4945,7.73813 22.08534,7.73813 9.67883,0 18.03783,-3.16559 22.21732,-7.7821 l -0.22,7.7821 c -4.13551,4.66048 -12.53849,7.65021 -22.17332,7.65021 -9.59086,0 -17.59788,-3.12164 -21.77738,-7.69417 z"/>
      <path d="m 155.9172,153.72895 c 4.1795,4.6165 12.4945,7.73813 22.08534,7.73813 9.67883,0 18.03783,-3.1656 22.21732,-7.78211 l -0.22,7.82607 c -4.13551,4.61651 -12.53849,7.6502 -22.17332,7.6502 -9.59086,0 -17.59788,-3.12163 -21.77738,-7.73813 z"/>
      <path d="m 127.05668,58.629077 c 7.69907,0 14.0343,-6.287234 14.0343,-14.025366 0,-7.738136 -6.33523,-14.025367 -14.0343,-14.025367 -7.74307,0 -14.03431,6.287231 -14.03431,14.025367 0,7.738132 6.29124,14.025366 14.03431,14.025366 z"/>
      <path d="m 31.368219,113.32359 c 4.223491,3.34147 7.611081,5.4079 13.330385,7.2545 l -9.370863,23.34629 -11.790578,-9.14507 c -4.267487,1.09918 -6.511215,5.40791 -4.443464,9.32094 15.310153,14.94866 35.943664,24.13769 59.61281,23.39026 23.625151,-0.7914 42.586861,-9.7606 60.536701,-22.73076 0.70392,-3.12163 -1.58381,-7.29847 -5.58732,-8.5735 l -13.41839,8.22177 -10.16277,-25.67653 c 20.23756,-17.36683 36.55959,-42.207991 48.35016,-71.489782 -1.62779,-4.748398 -4.79542,-5.451865 -8.88692,-3.737165 -9.50286,21.675562 -18.12582,41.41659 -34.49184,50.913389 -16.410023,9.452828 -33.611949,4.088898 -52.661658,-1.319006 -3.123616,1.099168 -3.915522,5.232034 -2.023751,7.826064 12.406502,6.63897 30.620311,10.63993 46.942349,6.72691 -9.326887,6.28722 -19.225688,11.03562 -32.204125,10.90372 -12.978435,-0.0879 -27.056738,-8.04589 -39.991178,-13.71759 -3.431586,1.36296 -4.795421,4.13286 -3.739548,8.48556 z m 22.041338,11.65116 c 16.102062,5.10013 32.380096,4.3527 48.482153,-1.8466 l 9.76683,26.73173 c -23.053226,9.54076 -45.226553,9.67266 -67.443869,-0.87933 z"/>
      <path d="m 86.097615,79.513237 c 7.74307,-8.573502 12.36251,-14.113298 21.953355,-17.36683 9.59085,-3.209568 19.84161,-0.263791 16.67399,11.255462 -3.12362,11.519264 -12.40651,17.630628 -24.944992,20.356556 -12.582484,2.725936 -26.880758,-2.198328 -42.630859,-5.847561 -2.991636,-2.901799 -1.451826,-7.298463 1.143857,-8.441599 l 34.183884,6.814834 22.26131,-12.838262 c -0.22,-3.033698 -2.11174,-4.660462 -4.00352,-3.869068 L 91.640947,80.96413 c -1.715788,0 -4.04751,-0.483628 -5.543332,-1.450893 z"/>
      <path d="m 86.84553,112.75203 c -6.027274,1.97849 -12.098548,2.85783 -18.125814,1.80262 -10.514737,-3.25352 -24.153091,-9.14506 -34.227874,-14.11329 L 4.9714006,114.11499 C 1.3198408,113.36756 -0.79190455,109.36659 0,104.70613 L 36.251629,86.635833 c 3.123624,-1.319002 5.367355,-1.450905 8.798937,0 3.431582,1.450901 6.775181,2.813864 10.910683,6.199299 -0.967882,2.637997 -1.143857,5.671698 -0.131998,9.276958 8.79894,5.31997 19.225686,8.79333 31.016264,10.63994 z"/>
    </g>
  </symbol>
  <symbol id="crypto-inv-icon" viewBox="0 0 200 200">
    <g>
      <path d="m 43.991938,120.70148 c 12.054418,0 21.829452,4.90944 21.829452,11.04624 0,6.09295 -9.775034,11.00239 -21.829452,11.00239 -12.054417,0 -21.829452,-4.90944 -21.829452,-11.00239 0,-6.1368 9.775035,-11.04624 21.829452,-11.04624 z"/>
      <path d="m 103.73801,101.67743 c 12.09825,0 21.87328,4.95327 21.87328,11.04622 0,6.09296 -9.77503,11.04623 -21.87328,11.04623 -12.05442,0 -21.82946,-4.95327 -21.82946,-11.04623 0,-6.09295 9.77504,-11.04622 21.82946,-11.04622 z"/>
      <path d="m 157.69796,49.12018 c 12.09825,0 21.87328,4.95326 21.87328,11.04622 0,6.09297 -9.77503,11.04624 -21.87328,11.04624 -12.05442,0 -21.82945,-4.95327 -21.82945,-11.04624 0,-6.09296 9.77503,-11.04622 21.82945,-11.04622 z"/>
      <path d="m 22.162486,141.04058 c 4.164256,4.55876 12.448927,7.67099 22.004785,7.67099 9.643532,0 17.972045,-3.15607 22.136301,-7.75867 l -0.219175,7.8025 c -4.120415,4.60259 -12.492757,7.62716 -22.092459,7.62716 -9.555859,0 -17.533692,-3.11224 -21.697949,-7.71483 z"/>
      <path d="m 81.90855,122.01651 c 4.16426,4.55876 12.44893,7.67099 22.04863,7.67099 9.5997,0 17.9282,-3.15607 22.09246,-7.75866 l -0.17534,7.8025 c -4.16425,4.6026 -12.49276,7.62716 -22.13629,7.62716 -9.55586,0 -17.5337,-3.11224 -21.69795,-7.71483 z"/>
      <path d="m 135.86851,69.45926 c 4.16425,4.6026 12.49275,7.71483 22.04862,7.71483 9.5997,0 17.97204,-3.15606 22.09245,-7.75866 l -0.17533,7.80249 c -4.16427,4.6026 -12.49276,7.58333 -22.13629,7.58333 -9.55586,0 -17.5337,-3.11223 -21.69796,-7.671 z"/>
      <path d="m 81.90855,135.60513 c 4.16426,4.55876 12.44893,7.71483 22.04863,7.71483 9.5997,0 17.9282,-3.15607 22.09246,-7.75866 l -0.17534,7.75866 c -4.16425,4.64642 -12.49276,7.62715 -22.13629,7.62715 -9.55586,0 -17.5337,-3.11223 -21.69795,-7.67098 z"/>
      <path d="m 135.86851,83.09171 c 4.16425,4.55876 12.49275,7.671 22.04862,7.671 9.5997,0 17.97204,-3.15608 22.09245,-7.75868 l -0.17533,7.80251 c -4.16427,4.60259 -12.49276,7.62715 -22.13629,7.62715 -9.55586,0 -17.5337,-3.11223 -21.69796,-7.71483 z"/>
      <path d="m 81.90855,149.10607 c 4.16426,4.55876 12.44893,7.671 22.04863,7.671 9.5997,0 17.9282,-3.15608 22.09246,-7.75868 l -0.17534,7.80251 c -4.16425,4.60259 -12.49276,7.62715 -22.13629,7.62715 -9.55586,0 -17.5337,-3.11223 -21.69795,-7.71483 z"/>
      <path d="m 135.86851,96.54882 c 4.16425,4.55876 12.49275,7.71483 22.04862,7.71483 9.5997,0 17.97204,-3.15607 22.09245,-7.8025 l -0.17533,7.8025 c -4.16427,4.64642 -12.49276,7.62715 -22.13629,7.62715 -9.55586,0 -17.5337,-3.11223 -21.69796,-7.67099 z"/>
      <path d="m 135.86851,109.8306 c 4.16425,4.60259 12.49275,7.71483 22.04862,7.71483 9.5997,0 17.97204,-3.15607 22.09245,-7.75866 l -0.17533,7.80249 c -4.16427,4.60259 -12.49276,7.62715 -22.13629,7.62715 -9.55586,0 -17.5337,-3.15606 -21.69796,-7.71482 z"/>
      <path d="m 135.91234,123.28771 c 4.16425,4.60259 12.44892,7.71482 22.04862,7.71482 9.5997,0 17.92821,-3.15606 22.09246,-7.75866 l -0.17535,7.8025 c -4.16424,4.60259 -12.49275,7.62716 -22.13628,7.62716 -9.55586,0 -17.5337,-3.15608 -21.69795,-7.71483 z"/>
      <path d="m 135.91234,136.52564 c 4.16425,4.55877 12.44892,7.671 22.04862,7.671 9.5997,0 17.92821,-3.15606 22.09246,-7.75866 l -0.17535,7.80249 c -4.16424,4.6026 -12.49275,7.62715 -22.13628,7.62715 -9.55586,0 -17.5337,-3.11222 -21.69795,-7.71481 z"/>
      <path d="M 20.233782,80.7685 45.175466,104.57048 68.933622,80.19866 H 53.328633 V 33.20835 H 37.066129 v 47.60398 z"/>
    </g>
  </symbol>
  <symbol id="get-started-next-icon" viewBox="0 0 150 100">
    <path id="next-icon" filter="url(#gs-next-icon-filter)" d="m 35.133333,14.633333 32.063445,32.604274 c 1.497835,1.674864 1.574669,3.34029 0.07605,5.035539 L 34.966667,84.966667 C 32.188889,86.133333 28.633333,82.744445 29.8,79.8 L 57.056521,52.391207 c 1.560877,-1.705018 1.302211,-3.532147 0.0838,-5.098151 L 29.8,19.8 c -1.420821,-3.020996 2.033755,-6.58852 5.333333,-5.166667 z"/>
    <g id="gs-next-waves">
      <path id="wave-1" d="m 35.133333,14.633333 32.063445,32.604274 c 1.497835,1.674864 1.574669,3.34029 0.07605,5.035539 L 34.966667,84.966667 C 32.188889,86.133333 28.633333,82.744445 29.8,79.8 L 57.056521,52.391207 c 1.560877,-1.705018 1.302211,-3.532147 0.0838,-5.098151 L 29.8,19.8 c -1.420821,-3.020996 2.033755,-6.58852 5.333333,-5.166667 z"/>
      <path id="wave-2" d="m 35.133333,14.633333 32.063445,32.604274 c 1.497835,1.674864 1.574669,3.34029 0.07605,5.035539 L 34.966667,84.966667 C 32.188889,86.133333 28.633333,82.744445 29.8,79.8 L 57.056521,52.391207 c 1.560877,-1.705018 1.302211,-3.532147 0.0838,-5.098151 L 29.8,19.8 c -1.420821,-3.020996 2.033755,-6.58852 5.333333,-5.166667 z"/>
    </g>
  </symbol>
  <symbol id="get-started-prev-icon" viewBox="0 0 150 100">
    <path id="prev-icon" filter="url(#gs-prev-icon-filter)" d="M 115.09748,14.633333 83.034029,47.237607 c -1.49783,1.674864 -1.57467,3.34029 -0.076,5.035539 l 32.306111,32.693521 c 2.77778,1.166666 6.33334,-2.222222 5.16667,-5.166667 L 93.17429,52.391207 C 91.61341,50.686189 91.87208,48.85906 93.09049,47.293056 L 120.43081,19.8 c 1.42082,-3.020996 -2.03376,-6.58852 -5.33333,-5.166667 z"/>
    <g id="gs-prev-waves">
      <path id="wave-1" d="M 115.09748,14.633333 83.034029,47.237607 c -1.49783,1.674864 -1.57467,3.34029 -0.076,5.035539 l 32.306111,32.693521 c 2.77778,1.166666 6.33334,-2.222222 5.16667,-5.166667 L 93.17429,52.391207 C 91.61341,50.686189 91.87208,48.85906 93.09049,47.293056 L 120.43081,19.8 c 1.42082,-3.020996 -2.03376,-6.58852 -5.33333,-5.166667 z"/>
      <path id="wave-2" d="M 115.09748,14.633333 83.034029,47.237607 c -1.49783,1.674864 -1.57467,3.34029 -0.076,5.035539 l 32.306111,32.693521 c 2.77778,1.166666 6.33334,-2.222222 5.16667,-5.166667 L 93.17429,52.391207 C 91.61341,50.686189 91.87208,48.85906 93.09049,47.293056 L 120.43081,19.8 c 1.42082,-3.020996 -2.03376,-6.58852 -5.33333,-5.166667 z"/>
    </g>
  </symbol>
  <symbol id="bitcoin-icon" viewBox="0 0 100 100">
    <path id="bitcoin" d="m 43.693309,52.462935 c 9.009092,-0.121872 21.921994,-1.305033 22.045957,8.476573 0.123957,9.781606 -13.221532,8.248713 -22.045957,8.211678 z m 0.265614,-23.310573 c 6.599867,0.08873 17.963517,-1.643659 18.061747,7.417 0.09823,9.060658 -11.156747,7.680332 -18.061747,7.681894 z M 20.319284,19.616218 H 35.990505 V 7.1662515 h 7.968418 V 19.616218 l 6.10912,-0.132441 V 6.901366 h 7.702805 v 13.244637 c 13.800137,0.673362 19.246587,7.203845 19.124204,14.701555 -0.06609,4.048443 -1.178727,8.694018 -6.640349,11.787734 4.593211,2.427666 11.48871,4.299959 11.421399,15.62868 -0.06732,11.328721 -12.466797,16.610719 -23.639641,16.688251 V 91.931975 H 49.80243 V 78.952223 H 43.693309 V 91.667082 H 35.724891 V 78.68733 H 20.053669 l 1.859298,-9.536144 h 6.10912 c 1.084948,-0.308327 2.325223,-0.306846 2.390526,-2.648928 V 32.066183 c -0.520679,-3.386869 -2.172178,-3.390492 -3.718595,-3.7085 h -6.374734 z" />
  </symbol>
  <symbol id="ethereum-icon" viewBox="0 0 100 100">
    <path id="ethereum" d="M 23.381238,55.372955 51.747889,72.112449 80.114539,55.642947 51.747889,93.981789 Z M 51.747889,6.7744217 79.84438,49.973118 52.018047,66.172629 23.921555,49.973118 Z" />
  </symbol>
  <symbol id="ripple-icon" viewBox="0 0 100 100">
    <path id="ripple" d="m 65.25,8.5 c 8.681993,0.7815458 16.053524,6.937445 16.5,17.5 0.446476,10.562555 -7.536978,16.131394 -13.75,17 -3.267907,0.482093 -6.78751,3.477531 -6.75,7.25 0.03751,3.772469 2.39187,6.74036 7,7 9.086237,-0.457026 15.741817,1.885199 19.5,9.25 C 92.258183,75.364801 89.882411,85.365853 81,90 71.367589,93.884147 62.493097,90.078334 58.705826,84.091342 54.918556,78.104351 55.57955,72.197114 57,67.75 c 0.44982,-3.19982 -0.270519,-6.800838 -3.75,-8.5 -3.479481,-1.699162 -7.683733,-0.442335 -9.5,3 C 41.114148,69.197482 36.012952,73.86804 26.75,74 17.487048,74.13196 10.249082,65.865835 10,57.5 c -0.7463734,-8.865835 6.246912,-16.648397 13.5,-18 7.253088,-1.351603 13.546294,1.504637 17.25,6.75 2.833268,3.000456 7.360081,2.663209 10,0.25 2.639919,-2.413209 2.669257,-7.233953 0.25,-10 C 48.471036,33.144919 46.257764,26.866767 47.75,21 49.242236,14.133233 56.568007,7.7184542 65.25,8.5 Z" />
  </symbol>
  <symbol id="litecoin-icon" viewBox="0 0 100 100">
    <path id="litecoin" d="M 39.976076,14.675894 H 62.806862 L 55.1966,43.626619 64.233785,39.3552 61.379937,50.74565 51.86711,55.017068 48.537621,70.204335 h 33.294895 l -3.329491,14.238058 -56.125678,0.474605 6.183338,-22.306298 -9.988468,3.322215 3.80513,-11.390449 8.085903,-2.847613 z" />
  </symbol>
  <symbol id="monero-icon" viewBox="0 0 100 100">
    <path id="monero" d="M 15.1413,71.040954 H 32.149254 V 49.355901 L 49.582406,67.001581 67.015558,49.781098 V 71.040954 H 84.023512 C 74.208688,84.570146 62.65363,90.094299 50.007605,90.600021 35.997467,90.49125 20.595558,81.672522 15.1413,71.040954 Z M 49.369807,9.59997 C 81.840652,9.64405 95.840405,43.605109 88.062901,62.74961 H 75.732135 V 28.946439 L 49.582406,55.096062 23.432677,28.521242 23.220078,62.962208 11.52711,62.74961 C 3.67278,37.556196 20.271336,9.595127 49.369807,9.59997 Z" />
  </symbol>
  <symbol id="dash-icon" viewBox="0 0 100 100">
    <path id="dash" d="M 8.9077897,43.692847 H 42.246297 L 38.457831,55.907151 H 4.7404768 Z M 24.440504,23.081209 h 62.130855 c 4.132226,0.09731 11.134201,1.942235 8.334627,12.214304 L 86.192512,63.541091 C 83.241992,71.873375 74.114582,76.155879 69.902105,76.51879 H 6.6347096 L 11.18087,63.541091 H 66.871332 L 75.584805,36.440604 H 19.515497 Z" />
  </symbol>
  <symbol id="prev-nav-icon" viewBox="0 0 100 100">
    <path d="M 61.09748,14.633333 29.034029,47.237607 c -1.49783,1.674864 -1.57467,3.34029 -0.076,5.035539 L 61.26414,84.966667 C 64.04192,86.133333 67.59748,82.744445 66.43081,79.8 L 39.17429,52.391207 C 37.61341,50.686189 37.87208,48.85906 39.09049,47.293056 L 66.43081,19.8 c 1.42082,-3.020996 -2.03376,-6.58852 -5.33333,-5.166667 z" />
  </symbol>
  <symbol id="next-nav-icon" viewBox="0 0 100 100">
    <path d="m 39.133333,14.633333 32.063445,32.604274 c 1.497835,1.674864 1.574669,3.34029 0.07605,5.035539 L 38.966667,84.966667 C 36.188889,86.133333 32.633333,82.744445 33.8,79.8 L 61.056521,52.391207 c 1.560877,-1.705018 1.302211,-3.532147 0.0838,-5.098151 L 33.8,19.8 c -1.420821,-3.020996 2.033755,-6.58852 5.333333,-5.166667 z" />
  </symbol>
  <symbol id="mobile-menu-icon" viewBox="0 0 400 150">
    <path id="open-menu-icon" d="m 11.322898,10.815245 c -2.9440022,0 -5.3136251,2.369616 -5.3136251,5.313622 v 11.80921 c 0,2.944003 2.3696229,5.31478 5.3136251,5.31478 H 164.24883 c 2.944,0 5.31363,-2.370777 5.31363,-5.31478 v -11.80921 c 0,-2.944006 -2.36963,-5.313622 -5.31363,-5.313622 z m 0,54.321679 c -2.9440022,0 -5.3136251,2.370778 -5.3136251,5.314786 v 11.80806 c 0,2.944005 2.3696229,5.314779 5.3136251,5.314779 H 164.24883 c 2.944,0 5.31363,-2.370774 5.31363,-5.314779 V 70.45171 c 0,-2.944008 -2.36963,-5.314786 -5.31363,-5.314786 z m 0,54.321706 c -2.9440022,0 -5.3136251,2.37078 -5.3136251,5.31477 v 11.80923 c 0,2.94399 2.3696229,5.31362 5.3136251,5.31362 H 164.24883 c 2.944,0 5.31363,-2.36963 5.31363,-5.31362 V 124.7734 c 0,-2.94399 -2.36963,-5.31477 -5.31363,-5.31477 z" />
    <path id="close-menu-icon" d="m 381.09365,10.654959 c -1.35828,0.0012 -2.71591,0.523137 -3.75578,1.564799 l -48.37253,48.455705 -48.3725,-48.455705 c -2.07978,-2.083336 -5.43048,-2.085531 -7.51381,-0.0061 l -8.35674,8.341748 c -2.08331,2.079764 -2.0867,5.43162 -0.007,7.514949 L 313.11449,76.552758 264.7154,125.035 c -2.07977,2.08333 -2.0764,5.4352 0.007,7.51496 l 8.35667,8.34175 c 2.08332,2.07977 5.43404,2.07757 7.51381,-0.006 l 48.37246,-48.455617 48.37253,48.455727 c 2.07982,2.08333 5.4316,2.08553 7.51497,0.006 l 8.35673,-8.34174 c 2.08333,-2.07977 2.08554,-5.43163 0.008,-7.51496 l -48.4014,-48.482199 48.39919,-48.482238 c 2.07975,-2.083317 2.07754,-5.435189 -0.008,-7.514945 l -8.35678,-8.341751 c -1.04162,-1.039878 -2.40093,-1.560196 -3.75918,-1.559028 z" />
  </symbol>
  <symbol id="user-profile-icon" viewBox="0 0 100 100">
    <g>
      <circle cx="31.211279" cy="30.255104" r="18" />
      <path d="M 18.718432,55.393716 43.302744,55.09127 c 7.947847,0.361972 16.580751,9.449413 16.086031,19.053908 C 55.430479,81.194581 42.790938,87.800462 31.162347,87.755115 19.533749,87.709766 7.462893,81.576853 3.23942,74.145178 3.4570146,64.397706 10.687607,55.666885 18.718432,55.393716 Z" />
    </g>
    <path d="m 74.876098,63.808338 3.882334,3.803175 8.618798,-8.615371 c 1.772945,-0.556305 3.144422,0.782358 2.639987,2.638946 L 79.923144,71.880396 c -0.802359,0.627292 -1.604707,0.741078 -2.407052,-0.07766 l -5.435277,-5.510742 c -0.863822,-1.948856 0.967438,-3.665269 2.795283,-2.483699 z m -8.196287,-10.375115 14.34002,-6.109709 14.104927,6.227205 c 0.77932,0.379706 0.937469,0.467168 0.940326,1.527427 V 66.00513 C 95.3665,73.685028 90.719459,80.456876 81.137367,83.746795 71.084456,80.461267 66.523247,73.692625 65.73948,66.00513 l 0.117539,-10.926984 c -0.04804,-0.548309 0.172237,-1.407079 0.822792,-1.644923 z" />
  </symbol>
  <symbol id="user-dashboard-icon" viewBox="0 0 100 100">
    <path d="M 2.5518418,65.424997 V 14.101118 H 13.184518 v 51.323879 z" />
    <path d="M 26.530691,64.321553 V 27.434751 h 8.861325 v 36.886802 z" />
    <path d="M 43.056399,64.321549 V 40.679157 h 8.861325 v 23.642392 z" />
    <path d="M 59.582107,64.321553 V 32.732517 h 8.861325 v 31.589036 z" />
    <path d="M 76.107815,64.321553 V 22.578472 h 8.861326 v 41.743081 z" />
    <path d="M 2.5518414,84.980553 V 74.692352 H 96.969985 v 10.288201 z" />
  </symbol>
  <symbol id="user-investment-plan-icon" viewBox="0 0 100 100">
    <path d="m -41.611442,29.207557 c 3.709897,0.163662 6.964227,0.782593 11.621028,0 19.187742,-4.363635 39.277305,-14.941105 66.239862,-18.871409 0,0 4.283164,-0.632222 5.810513,0 1.527356,0.632221 1.45015,1.883195 3.370103,2.438767 1.919946,0.55557 2.052708,-0.437126 4.76462,0.174194 5.754913,3.376965 21.305596,16.707104 28.006671,20.613388 3.553879,2.071666 13.537925,22.797051 14.5844,26.942564 1.295822,3.692547 -0.271258,5.722051 -3.253898,6.038855 -2.982618,0.3168 -6.779825,-3.557885 -8.250923,-5.690457 -1.471097,-2.132577 -2.921287,-5.79858 -3.486307,-9.00021 -4.936109,-3.049168 -8.19884,-5.355075 -10.362084,-9.77442 -3.764051,0.08826 -6.486196,-0.582136 -9.393665,-1.838756 C 53.537511,37.533901 50.225399,36.430394 46.708373,37.24 c -4.688473,1.304813 -8.140536,8.478785 -7.65051,12.580943 0.161938,6.085448 3.625603,7.771576 6.778935,9.871195 7.722076,4.334663 15.026423,9.339358 18.361226,17.419761 1.026138,4.545451 1.362283,6.508028 -0.290528,10.56799 -1.066234,2.59653 -5.312371,3.34541 -6.740195,1.916173 C 55.397993,88.397565 54.795818,83.958719 53.099942,82.337831 47.685551,77.463744 44.946002,75.631453 41.76944,75.466704 33.372067,74.872115 28.986864,71.885695 23.466315,69.853665 14.750548,70.915133 7.5842463,70.692194 2.5484634,69.563337 -5.7861054,67.898002 -8.281454,64.935941 -12.268346,62.305103 c -3.091431,-2.212509 -17.931553,1.522347 -26.437838,2.322636 z" />
    <path d="m 49.071313,35.026201 c -1.049218,5.955026 0.569181,11.296176 0.193688,15.317333 -2.147072,1.410403 -5.317071,6.09609 -8.315367,9.347446 0.479417,0.579552 4.801415,3.078612 8.328414,5.18054 3.561614,-2.591515 6.967697,-5.325864 9.864826,-10.656926 1.331291,-0.986862 1.644397,-9.086042 2.517892,-14.661024 -3.254892,-0.169888 -7.164208,-4.699585 -12.589453,-4.527369 z" />
    <path d="M 88.673685,77.112981 A 10.166737,10.159832 0 0 1 78.506949,87.272812 10.166737,10.159832 0 0 1 68.340208,77.112981 10.166737,10.159832 0 0 1 78.506949,66.95315 10.166737,10.159832 0 0 1 88.673685,77.112981 Z" />
  </symbol>
  <symbol id="user-profile-settings-icon" viewBox="0 0 100 100">
    <circle cx="29.676958" cy="29.514874" r="17" />
    <path d="m 17.739865,53.56803 23.490654,-0.289386 c 7.59428,0.346342 15.843142,9.041397 15.37043,18.231179 C 52.818742,78.25484 40.741482,84.575486 29.630198,84.532097 18.518911,84.488708 6.9850385,78.620605 2.9494513,71.509823 3.157366,62.183236 10.066298,53.829404 17.739865,53.56803 Z" />
    <path d="M 87.500104,61.393325 A 9.0188525,9.0213753 0 0 1 78.481252,70.4147 9.0188525,9.0213753 0 0 1 69.4624,61.393325 a 9.0188525,9.0213753 0 0 1 9.018852,-9.021375 9.0188525,9.0213753 0 0 1 9.018852,9.021375 z m -12.749097,-14.376373 1.125617,-5.11778 h 5.21877 l 0.920958,5.220135 3.888497,1.637691 4.502466,-2.968313 3.581509,3.48009 -2.967535,4.298935 1.534932,4.196581 5.116443,0.9212 0.20466,4.913068 -5.423431,1.023557 -1.534932,3.991868 3.069863,4.401291 -3.683837,3.684803 -4.502468,-3.173024 -3.786166,1.637688 -1.023288,5.220137 -5.014111,0.102354 -1.02329,-5.117778 -3.888495,-1.63769 -4.502468,2.865956 -3.479179,-3.480089 3.069865,-4.503647 -1.739589,-3.787158 -5.321101,-1.023555 v -5.220137 l 5.21877,-0.818845 1.637262,-3.991868 -2.865207,-4.606003 3.786165,-3.582445 4.093154,3.070668 z" />
  </symbol>
  <symbol id="user-account-settings-icon" viewBox="0 0 100 100">
    <path d="M 48.895846,50.022737 A 14.953142,14.960031 0 0 1 33.942705,64.982769 14.953142,14.960031 0 0 1 18.989564,50.022737 14.953142,14.960031 0 0 1 33.942705,35.062706 14.953142,14.960031 0 0 1 48.895846,50.022737 Z m -21.137839,-23.840156 1.866258,-8.48675 h 8.652653 l 1.526938,8.656484 6.447077,2.715761 7.465032,-4.922315 5.938095,5.77099 -4.920134,7.128868 2.544896,6.959137 8.482998,1.527614 0.339324,8.147279 -8.991979,1.697352 -2.544898,6.619664 5.089793,7.298604 -6.107755,6.110462 -7.465033,-5.261785 -6.277415,2.715758 -1.696598,8.656486 -8.313333,0.169732 -1.696601,-8.486746 -6.447074,-2.71576 -7.465035,4.752579 -5.768434,-5.770988 5.089796,-7.468341 -2.884214,-6.280196 -8.8223178,-1.697348 v -8.656487 l 8.6526528,-1.357881 2.71456,-6.619663 -4.750477,-7.638077 6.277413,-5.940723 6.786397,5.09205 z" />
    <path d="m 76.83915,74.273151 a 3.0479372,3.0489662 89.110426 0 1 -1.707859,3.957926 3.0479372,3.0489662 89.110426 0 1 -3.959243,-1.707245 3.0479372,3.0489662 89.110426 0 1 1.707862,-3.957925 3.0479372,3.0489662 89.110426 0 1 3.95924,1.707244 z M 68.512603,73.491179 80.309695,46.151718 c -1.216795,-3.244683 -1.751193,-6.225945 -0.109423,-9.325931 1.486539,-3.212446 5.345137,-5.076191 8.383775,-5.226776 l -3.112722,7.414647 c -0.293613,1.002018 -0.374253,1.756568 0.537705,2.572806 l 4.24122,1.828834 c 1.093406,-0.04701 1.880969,-0.493559 2.241025,-1.374604 l 3.280478,-7.602418 c 2.838981,3.346272 3.426339,7.387895 2.192395,10.395853 -1.233942,3.007961 -3.677545,5.199769 -7.396949,6.087478 l -11.79709,27.339461 c -1.118561,2.065563 -4.111384,3.280101 -7.019403,2.262003 -2.668934,-1.050856 -4.089637,-4.637087 -3.238103,-7.031892 z" />
  </symbol>
  <symbol id="user-testimonies-icon" viewBox="0 0 100 100">
    <g>
      <circle cx="27.627686" cy="30.27993" r="16" />
      <path d="M 16.427478,52.851845 38.46806,52.580294 c 7.125487,0.324999 14.865148,8.484618 14.421616,17.108473 C 49.340944,76.018392 38.009211,81.949824 27.583825,81.909105 17.158433,81.868422 6.3365426,76.36163 2.5500749,69.688733 2.7451518,60.936518 9.2275983,53.09712 16.427478,52.851845 Z" />
    </g>
    <path d="m 58.472564,56.215959 1.124238,-9.743395 H 52.101883 V 22.484758 h 44.464435 v 23.61306 H 69.963419 Z" />
  </symbol>
  <symbol id="check-icon" viewBox="0 0 100 100">
    <path d="M 4.0430676,50.58029 30.258361,82.224663 96.456932,27.383474 89.225126,18.653992 32.119767,65.962051 13.136278,43.047161 Z" />
  </symbol>
  <symbol id="logout-icon" viewBox="0 0 100 100">
    <path d="m 31.66614,43.280068 v 13.210705 l 4.755179,0.792642 V 42.487426 Z M 11.338264,18.506565 64.222473,18.242351 26.181046,27.754059 V 73.602066 L 64.222472,82.84956 11.338264,82.585346 Z M 6.054733,13.222282 h 62.00516 V 87.605413 H 6.054733 Z" />
  </symbol>
  <symbol id="close-win-icon" viewBox="0 0 100 100">
    <path d="m 83.33144,7.8363661 c -0.8715,7.7e-4 -1.74258,0.335655 -2.40977,1.004005 L 49.885133,39.930455 18.848616,8.8403711 c -1.334418,-1.336708 -3.484277,-1.338116 -4.820973,-0.0039 L 8.6658342,14.188693 c -1.336682,1.334415 -1.338857,3.485028 -0.0045,4.82173 L 39.714992,50.117624 8.6614142,81.224729 c -1.334412,1.33671 -1.332249,3.48734 0.0045,4.82175 l 5.3617638,5.35222 c 1.336689,1.33442 3.486561,1.33301 4.820972,-0.004 L 49.885133,60.304818 80.92167,91.394919 c 1.33444,1.3367 3.48499,1.33811 4.82172,0.004 l 5.3618,-5.35222 c 1.3367,-1.33442 1.33812,-3.48503 0.005,-4.82174 L 60.055262,50.117728 91.10891,19.01062 c 1.3344,-1.336695 1.33298,-3.487319 -0.005,-4.821729 L 85.74208,8.8366681 c -0.66832,-0.667205 -1.54047,-1.001051 -2.41195,-1.000302 z" />
  </symbol>
  <symbol id="menu-tray-icon" viewBox="0 0 100 100">
    <path d="M 29.445675,48.906468 A 10.219845,10.219845 0 0 1 19.225831,59.126312 10.219845,10.219845 0 0 1 9.005987,48.906468 10.219845,10.219845 0 0 1 19.225831,38.686623 10.219845,10.219845 0 0 1 29.445675,48.906468 Z" />
    <path d="M 60.493864,48.906468 A 10.219845,10.219845 0 0 1 50.27402,59.126312 10.219845,10.219845 0 0 1 40.054176,48.906468 10.219845,10.219845 0 0 1 50.27402,38.686623 10.219845,10.219845 0 0 1 60.493864,48.906468 Z" />
    <path d="M 91.445675,48.906468 A 10.219845,10.219845 0 0 1 81.225831,59.126312 10.219845,10.219845 0 0 1 71.005987,48.906468 10.219845,10.219845 0 0 1 81.225831,38.686623 10.219845,10.219845 0 0 1 91.445675,48.906468 Z" />
  </symbol>
  <symbol id="send-msg-icon" viewBox="0 0 100 100">
    <path d="m 15.171956,11.292872 71.80649,39.031767 -71.80649,38.746863 V 59.156644 L 51.360148,50.039735 15.171956,41.207729 Z" />
  </symbol>
  <symbol id="papar-clip-icon" viewBox="0 0 100 100">
    <path d="M 45.61431,45.618012 34.233036,64.282538 c -7.330842,12.022086 8.189263,21.385635 15.479778,9.42968 L 74.941979,32.338085 C 84.204228,17.065445 61.217969,3.1571553 51.845167,18.268404 L 25.008311,62.279042 C 13.75703,81.098806 44.430505,99.137858 55.871911,80.74314 L 68.711123,59.687695" />
  </symbol>
  <symbol id="right-arrow-icon" viewBox="0 0 100 100">
    <path d="m 1.2521103,42.984834 63.5911257,2e-6 10e-7,-21.458294 33.956426,28.573132 -33.956427,27.954451 10e-7,-21.767632 -63.5911258,-10e-7 z" />
  </symbol>
  <symbol id="mail-envelop-icon" viewBox="0 0 100 100">
    <path d="m 10.875192,31.99099 37.824579,36.459165 c 2.332272,2.255173 5.324212,2.119466 7.282208,0 L 90.848161,31.99099 v 44.065185 l -79.7454,-0.227569 z m 2.227569,-8.827071 H 89.07573 L 55.299272,58.305791 c -2.048121,1.663032 -3.868673,1.738428 -5.916794,0 z M 8.4200538,16.38497 H 93.758437 c 2.239841,-0.08001 4.18505,0.884374 4.096243,2.958397 l -10e-7,60.078222 c -0.05964,3.061282 -1.794264,3.330922 -3.641104,3.413535 H 7.2822087 C 5.0495473,82.708032 4.177071,81.333232 3.8686734,79.649158 V 19.570936 C 4.2555723,17.661276 5.608082,16.475825 8.4200538,16.38497 Z" />
  </symbol>
  <symbol id="user-info-icon" viewBox="0 0 100 100">
    <path d="m 64.983136,47.057254 h 9.891918 v 9.121525 h -9.891918 z m 0,16.868425 h 9.891918 v 23.178543 h -9.891918 z m 33.994662,3.367874 A 29.068295,29.072297 0 0 1 69.909503,96.36585 29.068295,29.072297 0 0 1 40.841208,67.293553 29.068295,29.072297 0 0 1 69.909503,38.221256 29.068295,29.072297 0 0 1 98.977798,67.293553 M 9.149746,53.89865 C 17.830341,45.40162 27.47855,44.725264 38.575961,49.420131 29.381443,59.640145 31.905622,78.751155 38.256107,84.928389 H 1.4733418 C 1.4109457,72.13262 0.46915252,62.395682 9.149746,53.89865 Z M 45.529632,21.320989 A 17.568855,17.571274 0 0 1 27.960778,38.892264 17.568855,17.571274 0 0 1 10.391922,21.320989 17.568855,17.571274 0 0 1 27.960778,3.7497159 17.568855,17.571274 0 0 1 45.529632,21.320989 Z" />
  </symbol>
  <symbol id="chat-dialog-icon" viewBox="0 0 100 100">
    <path d="M 14.08471,20.188918 H 86.817852 L 86.566182,62.232836 33.463436,61.981075 14.08471,78.345475 Z M 7.2895716,13.391398 H 93.36132 V 69.030356 H 35.476811 L 15.958356,85.720376 7.0379006,85.394755 Z" />
  </symbol>
  <symbol id="c2chat-icon" viewBox="0 0 100 100">
    <path d="M 8.8068652,29.362755 C 13.558884,20.618125 20.689215,14.251892 29.292383,9.3585464 L 27.846347,5.9843426 C 17.618068,12.033995 10.11834,19.296379 5.6737859,27.916667 Z m 7.7121948,3.856232 c 4.347542,-7.372247 9.874068,-12.386443 16.147407,-15.90696 l -1.446036,-3.13319 C 23.215606,18.670138 17.538591,24.713366 13.385981,31.7729 Z m 4.011773,15.250263 c 0.500132,-7.960304 9.610761,-26.930525 32.787925,-27.377287 21.254224,0.413808 32.634043,18.819053 33.24178,27.377287 L 83.440657,48.44984 83.328085,63.112915 H 94.701583 V 48.469251 l -4.781245,0.01583 C 88.995854,37.432113 77.049844,18.004858 53.318758,17.773027 31.959113,17.600011 17.87304,35.748385 17.029211,48.46925 h -4.934105 v 14.962006 h 5.411599 c 1.211451,10.13949 12.529899,26.787867 32.310429,28.332308 l 0.0032,2.570921 7.99756,-0.09317 -0.0046,-9.817322 -8.154604,0.216879 1.31e-4,3.956044 C 35.212332,85.597945 24.273063,77.780915 20.530833,63.43126 H 23.79145 L 23.627766,48.469254 Z M 39.948925,63.749597 H 66.68859 c -1.818433,4.235799 -6.793083,7.928417 -13.369832,7.958512 -6.57675,0.0301 -11.568356,-3.818892 -13.369833,-7.958512 z m 41.090011,-8.899276 c 0,15.302095 -12.404363,27.706892 -27.705921,27.706892 -15.301559,0 -27.705922,-12.404797 -27.705922,-27.706892 0,-15.302094 12.404363,-27.706891 27.705922,-27.706891 15.301558,0 27.705921,12.404797 27.705921,27.706891 m -12.83321,-4.297595 c 0,2.029744 -1.645375,3.675176 -3.675047,3.675176 -2.029673,0 -3.675047,-1.645433 -3.675047,-3.675176 0,-2.029742 1.645374,-3.675175 3.675047,-3.675175 2.029672,0 3.675047,1.645431 3.675047,3.675175 m -22.498356,0 c 0,2.029743 -1.645374,3.675176 -3.675047,3.675176 -2.029672,0 -3.675047,-1.645432 -3.675047,-3.675176 0,-2.029744 1.645375,-3.675175 3.675047,-3.675175 2.029673,0 3.675047,1.645433 3.675047,3.675175 m 32.148874,4.297599 c 0,13.544277 -10.979423,24.524084 -24.523226,24.524084 -13.543805,2e-6 -24.523228,-10.979806 -24.523228,-24.524084 -2e-6,-13.544279 10.979423,-24.524088 24.523228,-24.524087 13.543805,0 24.523228,10.979808 24.523226,24.524087 z" />
  </symbol>
  <symbol id="collapse-expand-icon" viewBox="0 0 100 200">
    <path d="M 7.9394678,34.79992 45.618096,71.73666 c 2.888013,2.82211 7.672167,2.85106 10.83177,-0.0925 L 92.925948,34.12332 c 3.383376,-3.45045 -2.312107,-9.53286 -6.204155,-5.87755 L 51.235614,64.59909 14.317709,28.18991 C 10.348931,24.3527 4.3424948,30.91739 7.9394678,34.79996 Z m 0,131.27976 37.6786282,-36.93674 c 2.888013,-2.82211 7.672167,-2.85106 10.83177,0.0925 l 36.476082,37.52084 c 3.383376,3.45045 -2.312107,9.53286 -6.204155,5.87755 L 51.235614,136.28051 14.317709,172.68969 c -3.968778,3.83721 -9.9752142,-2.72748 -6.3782412,-6.61005 z" />
  </symbol>
  <symbol id="nav-prev-icon" viewBox="0 0 100 100">
    <path d="m 63.678414,9.546667 -37.08502,37.652762 c -1.732411,1.934203 -1.821285,3.857505 -0.0879,5.815249 l 37.365684,37.755828 c 3.212818,1.347314 7.325227,-2.566314 5.97584,-5.96668 L 38.321756,53.15102 c -1.805335,-1.969026 -1.506153,-4.07907 -0.09692,-5.887556 L 69.847015,15.513348 c 1.64334,-3.488771 -2.352274,-7.6086953 -6.168601,-5.966681 z" />
  </symbol>
  <symbol id="nav-next-icon" viewBox="0 0 100 100">
    <path d="m 35.797342,9.546667 37.08502,37.652762 c 1.732411,1.934203 1.821285,3.857505 0.0879,5.815249 L 35.604578,90.770506 c -3.212818,1.347314 -7.325227,-2.566314 -5.97584,-5.96668 L 61.154,53.15102 c 1.805335,-1.969026 1.506153,-4.07907 0.09692,-5.887556 L 29.628741,15.513348 c -1.64334,-3.488771 2.352274,-7.6086953 6.168601,-5.966681 z" />
  </symbol>
</svg>
